<?xml version="1.0" standalone="no"?>
<!DOCTYPE svg PUBLIC "-//W3C//DTD SVG 20010904//EN"
 "http://www.w3.org/TR/2001/REC-SVG-20010904/DTD/svg10.dtd">
<svg version="1.0" xmlns="http://www.w3.org/2000/svg"
 width="615.000000pt" height="615.000000pt" viewBox="0 0 615.000000 615.000000"
 preserveAspectRatio="xMidYMid meet">

<g transform="translate(0.000000,615.000000) scale(0.100000,-0.100000)"
fill="#000000" stroke="none">
<path d="M3567 6000 c-78 -13 -187 -49 -258 -85 -93 -46 -151 -84 -144 -94 2
-5 -3 -15 -13 -22 -15 -13 -16 -12 -3 4 21 27 -1 20 -42 -14 -20 -17 -35 -34
-32 -39 3 -5 0 -12 -6 -16 -8 -4 -9 -3 -5 4 4 7 3 12 -3 12 -11 0 -274 -274
-280 -293 -3 -8 3 -7 15 3 18 14 18 14 5 -2 -7 -10 -17 -16 -21 -13 -13 8 -73
-62 -65 -77 5 -7 4 -10 0 -5 -9 8 -75 -50 -75 -67 0 -5 17 6 38 25 l37 34 -34
-37 c-19 -21 -37 -35 -40 -33 -6 7 -61 -46 -61 -58 0 -6 10 -2 23 9 l22 19
-19 -22 c-10 -13 -22 -20 -27 -18 -12 8 -191 -203 -183 -216 4 -7 3 -9 -4 -5
-6 3 -62 -53 -131 -133 -121 -140 -150 -181 -88 -125 l32 29 -29 -32 c-16 -18
-33 -31 -38 -30 -6 1 -68 -65 -138 -148 -123 -144 -161 -196 -103 -144 l27 24
-25 -31 c-13 -17 -27 -27 -30 -22 -3 5 -29 -18 -57 -50 -57 -65 -68 -90 -24
-51 l27 24 -24 -27 c-14 -16 -27 -26 -29 -23 -7 7 -42 -25 -42 -38 0 -6 10 -2
23 9 l22 19 -19 -22 c-10 -13 -22 -20 -27 -18 -7 5 -121 -133 -267 -321 -35
-46 -41 -64 -14 -43 15 13 16 12 3 -3 -7 -10 -17 -15 -22 -12 -11 7 -131 -156
-300 -409 -131 -197 -155 -238 -127 -221 7 4 8 3 4 -5 -4 -6 -11 -9 -16 -6
-20 12 -260 -436 -364 -682 -220 -519 -262 -878 -130 -1118 40 -72 150 -177
262 -249 525 -340 1283 -628 2097 -795 388 -79 624 -105 980 -105 285 -1 409
10 605 50 187 39 437 144 596 251 98 67 197 151 189 162 -2 5 8 19 23 32 l27
24 -24 -28 c-14 -15 -20 -27 -15 -27 17 0 115 120 108 132 -4 6 -3 8 3 5 13
-8 41 23 92 102 41 63 51 88 31 76 -6 -4 6 27 27 69 20 41 39 74 41 72 2 -2
-11 -32 -28 -66 -17 -34 -29 -64 -26 -67 6 -7 58 97 96 191 158 398 158 933 0
1273 -39 84 -98 178 -107 170 -2 -3 12 -29 31 -57 20 -29 36 -57 36 -64 -1 -6
-8 3 -17 19 -9 17 -27 44 -40 61 -13 17 -21 38 -18 45 13 35 -187 214 -335
300 -254 149 -516 224 -820 235 -306 12 -565 -47 -830 -188 -120 -63 -223
-136 -214 -150 5 -7 2 -8 -5 -4 -13 8 -54 -22 -46 -34 2 -4 -8 -18 -23 -31
l-27 -24 24 28 c14 15 20 27 15 27 -12 0 -192 -184 -251 -255 -22 -27 -109
-151 -193 -275 -320 -472 -447 -605 -576 -604 -135 2 -197 125 -125 249 17 28
67 93 112 145 154 178 295 382 370 536 71 147 117 295 224 720 151 596 205
777 316 1056 108 273 218 471 324 586 34 37 63 72 65 77 1 6 6 9 11 8 5 -2 30
11 56 27 192 122 643 114 762 -13 35 -38 39 -102 9 -147 -46 -69 -133 -93
-435 -119 -135 -12 -208 -34 -265 -81 -33 -28 -130 -185 -203 -329 -34 -68
-36 -67 133 -114 339 -96 650 -112 892 -46 169 47 288 115 400 230 77 78 122
150 157 251 23 64 26 90 27 203 0 112 -3 144 -27 228 -124 448 -491 743 -1040
837 -122 21 -280 25 -370 10z m170 -6 c-3 -3 -12 -4 -19 -1 -8 3 -5 6 6 6 11
1 17 -2 13 -5z m142 -10 c8 -7 -54 -2 -79 6 -17 6 -9 7 25 3 28 -3 52 -7 54
-9z m-261 -1 c-10 -2 -26 -2 -35 0 -10 3 -2 5 17 5 19 0 27 -2 18 -5z m-71 -9
c-3 -3 -12 -4 -19 -1 -8 3 -5 6 6 6 11 1 17 -2 13 -5z m401 -1 c-10 -2 -26 -2
-35 0 -10 3 -2 5 17 5 19 0 27 -2 18 -5z m117 -23 c25 -11 -1 -11 -35 0 -20 6
-21 8 -5 8 11 0 29 -3 40 -8z m-645 -10 c-8 -5 -19 -10 -25 -10 -5 0 -3 5 5
10 8 5 20 10 25 10 6 0 3 -5 -5 -10z m701 -8 c-7 -2 -18 1 -23 6 -8 8 -4 9 13
5 13 -4 18 -8 10 -11z m-751 -12 c-8 -5 -19 -10 -25 -10 -5 0 -3 5 5 10 8 5
20 10 25 10 6 0 3 -5 -5 -10z m805 0 c13 -6 15 -9 5 -9 -8 0 -22 4 -30 9 -18
12 -2 12 25 0z m-940 -66 c-26 -20 -55 -36 -55 -30 0 5 63 46 70 46 3 -1 -4
-8 -15 -16z m1165 -24 c33 -17 60 -33 60 -35 0 -5 -119 52 -129 61 -13 12 16
1 69 -26z m-1270 -44 c0 -2 -8 -10 -17 -17 -16 -13 -17 -12 -4 4 13 16 21 21
21 13z m1410 -42 c0 -2 -9 0 -20 6 -11 6 -20 13 -20 16 0 2 9 0 20 -6 11 -6
20 -13 20 -16z m-1490 -28 c0 -2 -8 -10 -17 -17 -16 -13 -17 -12 -4 4 13 16
21 21 21 13z m1561 -23 c13 -16 12 -17 -3 -4 -10 7 -18 15 -18 17 0 8 8 3 21
-13z m85 -75 l29 -33 -32 29 c-31 28 -38 36 -30 36 2 0 16 -15 33 -32z m-1726
19 c0 -2 -17 -19 -37 -38 l-38 -34 34 38 c33 34 41 42 41 34z m1795 -97 c10
-11 16 -20 13 -20 -3 0 -13 9 -23 20 -10 11 -16 20 -13 20 3 0 13 -9 23 -20z
m-1905 -24 c0 -2 -8 -10 -17 -17 -16 -13 -17 -12 -4 4 13 16 21 21 21 13z
m2010 -126 c6 -11 8 -20 6 -20 -3 0 -10 9 -16 20 -6 11 -8 20 -6 20 3 0 10 -9
16 -20z m60 -135 c0 -5 -5 -3 -10 5 -5 8 -10 20 -10 25 0 6 5 3 10 -5 5 -8 10
-19 10 -25z m29 -85 c0 -10 -3 -8 -9 5 -12 27 -12 43 0 25 5 -8 9 -22 9 -30z
m-2399 7 c0 -2 -10 -12 -22 -23 l-23 -19 19 23 c18 21 26 27 26 19z m1740 -82
c13 -14 21 -25 18 -25 -2 0 -15 11 -28 25 -13 14 -21 25 -18 25 2 0 15 -11 28
-25z m-1810 1 c0 -2 -8 -10 -17 -17 -16 -13 -17 -12 -4 4 13 16 21 21 21 13z
m2487 -28 c-3 -7 -5 -2 -5 12 0 14 2 19 5 13 2 -7 2 -19 0 -25z m10 -55 c-3
-10 -5 -4 -5 12 0 17 2 24 5 18 2 -7 2 -21 0 -30z m-2547 23 c0 -2 -8 -10 -17
-17 -16 -13 -17 -12 -4 4 13 16 21 21 21 13z m-50 -59 c0 -2 -12 -14 -27 -28
l-28 -24 24 28 c23 25 31 32 31 24z m2607 -39 c-3 -8 -6 -5 -6 6 -1 11 2 17 5
13 3 -3 4 -12 1 -19z m-677 -21 c0 -2 -12 -14 -27 -28 l-28 -24 24 28 c23 25
31 32 31 24z m-1990 -10 c0 -2 -15 -16 -32 -33 l-33 -29 29 33 c28 30 36 37
36 29z m-80 -91 c0 -2 -8 -10 -17 -17 -16 -13 -17 -12 -4 4 13 16 21 21 21 13z
m1613 -23 c-7 -2 -21 -2 -30 0 -10 3 -4 5 12 5 17 0 24 -2 18 -5z m977 -286
c0 -2 -10 -12 -22 -23 l-23 -19 19 23 c18 21 26 27 26 19z m-2860 -10 c0 -2
-12 -14 -27 -28 l-28 -24 24 28 c23 25 31 32 31 24z m2537 -213 c-3 -3 -12 -4
-19 -1 -8 3 -5 6 6 6 11 1 17 -2 13 -5z m-200 -50 c-3 -3 -12 -4 -19 -1 -8 3
-5 6 6 6 11 1 17 -2 13 -5z m-2717 -197 c0 -2 -10 -12 -22 -23 l-23 -19 19 23
c18 21 26 27 26 19z m-70 -90 c0 -2 -10 -12 -22 -23 l-23 -19 19 23 c18 21 26
27 26 19z m1257 -429 c-3 -8 -6 -5 -6 6 -1 11 2 17 5 13 3 -3 4 -12 1 -19z
m-10 -40 c-3 -8 -6 -5 -6 6 -1 11 2 17 5 13 3 -3 4 -12 1 -19z m1446 -295 c-7
-2 -21 -2 -30 0 -10 3 -4 5 12 5 17 0 24 -2 18 -5z m-110 -10 c-13 -2 -35 -2
-50 0 -16 2 -5 4 22 4 28 0 40 -2 28 -4z m315 0 c-10 -2 -26 -2 -35 0 -10 3
-2 5 17 5 19 0 27 -2 18 -5z m55 -10 c-7 -2 -19 -2 -25 0 -7 3 -2 5 12 5 14 0
19 -2 13 -5z m112 -13 c14 -7 8 -8 -20 -3 -22 3 -42 7 -44 9 -9 8 45 2 64 -6z
m62 -16 c-3 -3 -12 -4 -19 -1 -8 3 -5 6 6 6 11 1 17 -2 13 -5z m-907 -29 c-46
-18 -64 -17 -25 0 17 8 37 14 45 14 8 0 -1 -7 -20 -14z m1005 5 c13 -5 14 -9
5 -9 -8 0 -24 4 -35 9 -13 5 -14 9 -5 9 8 0 24 -4 35 -9z m-1105 -40 c-8 -5
-19 -10 -25 -10 -5 0 -3 5 5 10 8 5 20 10 25 10 6 0 3 -5 -5 -10z m-40 -14 c0
-2 -7 -7 -16 -10 -8 -3 -12 -2 -9 4 6 10 25 14 25 6z m1330 -16 c46 -25 34
-25 -21 0 -24 11 -37 19 -29 19 8 0 31 -8 50 -19z m-1371 -4 c-2 -2 -15 -9
-29 -15 -24 -11 -24 -11 -6 3 16 13 49 24 35 12z m1511 -72 c0 -2 -9 0 -20 6
-11 6 -20 13 -20 16 0 2 9 0 20 -6 11 -6 20 -13 20 -16z m-1675 -14 c-3 -5
-12 -10 -18 -10 -7 0 -6 4 3 10 19 12 23 12 15 0z m1745 -26 c0 -2 -9 0 -20 6
-11 6 -20 13 -20 16 0 2 9 0 20 -6 11 -6 20 -13 20 -16z m115 -80 c44 -34 89
-72 100 -85 12 -15 7 -13 -15 7 -19 17 -66 55 -105 84 -77 59 -99 78 -75 65 8
-5 51 -37 95 -71z m146 -131 c13 -16 12 -17 -3 -4 -17 13 -22 21 -14 21 2 0
10 -8 17 -17z m153 -239 c3 -8 2 -12 -4 -9 -6 3 -10 10 -10 16 0 14 7 11 14
-7z m35 -94 c0 -10 -3 -8 -9 5 -12 27 -12 43 0 25 5 -8 9 -22 9 -30z m25 -80
c4 -25 3 -31 -4 -20 -5 8 -10 26 -10 39 0 32 6 24 14 -19z m45 -264 c1 -63 -6
-37 -12 44 -4 56 -3 65 3 35 5 -22 9 -58 9 -79z m8 -228 c-3 -8 -6 -5 -6 6 -1
11 2 17 5 13 3 -3 4 -12 1 -19z m-10 -140 c-2 -13 -4 -3 -4 22 0 25 2 35 4 23
2 -13 2 -33 0 -45z m-10 -80 c-2 -13 -4 -5 -4 17 -1 22 1 32 4 23 2 -10 2 -28
0 -40z m-20 -110 c-3 -7 -5 -2 -5 12 0 14 2 19 5 13 2 -7 2 -19 0 -25z m-30
-110 c-3 -8 -6 -5 -6 6 -1 11 2 17 5 13 3 -3 4 -12 1 -19z m-17 -63 c-16 -47
-23 -40 -8 8 6 20 13 35 16 33 2 -3 -1 -21 -8 -41z m-35 -92 c-9 -15 -13 -19
-10 -8 4 11 10 29 13 40 3 11 7 14 9 8 3 -7 -3 -24 -12 -40z m-144 -280 c-14
-24 -55 -72 -45 -53 10 20 47 70 51 70 2 0 -1 -8 -6 -17z m-221 -246 c0 -2
-12 -14 -27 -28 l-28 -24 24 28 c23 25 31 32 31 24z"/>
</g>
</svg>
