<?xml version="1.0" standalone="no"?>
<!DOCTYPE svg PUBLIC "-//W3C//DTD SVG 20010904//EN"
 "http://www.w3.org/TR/2001/REC-SVG-20010904/DTD/svg10.dtd">
<svg version="1.0" xmlns="http://www.w3.org/2000/svg"
 width="257.000000pt" height="250.000000pt" viewBox="0 0 257.000000 250.000000"
 preserveAspectRatio="xMidYMid meet">

<g transform="translate(0.000000,250.000000) scale(0.100000,-0.100000)"
fill="#000000" stroke="none">
<path d="M1115 2473 c-11 -3 -88 -27 -172 -54 -194 -63 -252 -107 -349 -259
-16 -25 -78 -112 -139 -195 -241 -325 -281 -400 -320 -605 -9 -47 -26 -116
-37 -155 -47 -160 -7 -228 193 -333 l69 -36 0 -406 c0 -302 3 -409 12 -418 10
-10 183 -19 190 -9 1 1 4 85 7 187 l6 185 722 3 723 2 2 -187 3 -188 100 0
100 0 3 460 c2 459 2 460 -19 477 -28 24 -135 25 -167 2 -21 -15 -22 -20 -22
-205 l0 -189 -235 0 c-129 0 -235 3 -235 8 1 4 22 23 48 42 71 53 190 178 254
266 161 225 218 416 218 735 l0 136 -142 6 c-288 14 -343 8 -461 -46 -31 -14
-75 -43 -99 -66 l-44 -40 -50 15 c-35 11 -78 14 -152 11 -91 -3 -109 -7 -164
-35 -33 -18 -63 -30 -66 -28 -7 8 26 233 44 297 19 68 29 71 81 32 31 -24 46
-28 97 -28 51 1 74 7 136 39 41 21 102 63 135 93 33 31 70 64 83 75 12 11 25
31 28 44 9 34 -20 116 -71 204 -51 87 -94 132 -147 154 -35 15 -119 19 -163 9z
m-235 -1818 c41 -8 126 -18 189 -22 l114 -8 13 -37 13 -38 -320 0 -319 0 0 99
0 100 118 -40 c64 -22 151 -46 192 -54z"/>
<path d="M155 767 c-17 -13 -21 -31 -25 -114 l-5 -98 -50 -3 c-27 -2 -55 -8
-62 -14 -17 -14 -17 -119 0 -141 7 -10 30 -17 62 -19 l50 -3 3 -99 c1 -55 8
-106 14 -113 7 -8 35 -13 79 -13 66 0 70 1 80 27 14 37 8 568 -7 583 -19 19
-116 24 -139 7z"/>
<path d="M2313 770 l-23 -9 0 -290 c0 -159 3 -296 6 -305 5 -12 21 -16 73 -16
39 0 72 5 79 12 8 8 12 48 12 114 l0 103 53 3 52 3 0 80 0 80 -52 3 -53 3 0
93 c0 58 -5 98 -12 108 -16 20 -104 31 -135 18z"/>
</g>
</svg>
